<svg class="img-fluid" id="outputsvg" xmlns="http://www.w3.org/2000/svg" width="1360" height="155" viewBox="0 0 13600 2550"><g id="l5LRmqz2gdiiTbRuoTSaJ0O" fill="rgb(0,180,210)" stroke="rgb(0,180,210)" stroke-width="10" style="transform: none;"><g style="transform: none;"><path id="pPZZqDxFx" d="M142 1657 c-45 -17 -98 -61 -119 -100 -17 -29 -18 -73 -18 -512 l0 -480 27 -80 c85 -249 291 -427 538 -466 45 -7 146 -9 259 -7 208 5 269 19 391 85 100 55 217 179 269 284 72 147 72 147 69 681 l-3 474 -28 42 c-75 115 -244 114 -324 -1 l-28 -40 -5 -466 c-5 -462 -5 -466 -28 -513 -27 -55 -78 -103 -141 -132 -41 -19 -64 -21 -221 -21 -163 0 -178 2 -222 23 -59 29 -130 107 -146 160 -8 28 -12 165 -12 464 0 484 -2 500 -69 561 -58 52 -123 67 -189 44z"></path><path id="pD3AHYYRw" d="M2306 1655 c-21 -7 -51 -26 -67 -41 -61 -58 -59 -39 -59 -653 l0 -561 -220 0 c-199 0 -225 -2 -259 -20 -157 -80 -139 -303 28 -359 45 -15 1229 -16 1283 -1 143 40 183 226 71 332 -46 44 -71 48 -299 48 l-214 0 0 543 c0 366 -4 555 -11 582 -21 75 -117 146 -194 145 -11 -1 -37 -7 -59 -15z"></path><path id="pDUS6Ad81" d="M3814 1661 c-223 -36 -413 -178 -509 -383 -62 -132 -66 -178 -63 -684 l3 -450 28 -43 c32 -49 110 -91 167 -91 49 0 118 37 154 83 l31 39 5 466 c5 420 7 471 23 507 24 53 81 111 140 141 47 25 53 25 235 22 156 -2 193 -6 223 -21 51 -26 108 -84 133 -137 20 -43 21 -63 26 -505 6 -507 4 -493 70 -549 86 -72 218 -52 285 43 l30 43 0 486 c0 481 0 488 -23 562 -67 214 -234 379 -457 450 -60 20 -96 23 -260 26 -104 1 -213 -1 -241 -5z"></path><path id="p10czN7UNC" d="M5066 1656 c-57 -21 -87 -47 -113 -96 -23 -42 -23 -50 -23 -347 0 -251 3 -310 15 -341 20 -47 50 -79 97 -103 35 -18 64 -19 463 -19 457 0 474 -2 509 -51 12 -18 16 -47 16 -116 0 -101 -10 -134 -49 -160 -24 -16 -68 -18 -477 -23 l-451 -5 -35 -24 c-117 -80 -117 -245 0 -326 l44 -30 448 -3 c378 -2 459 0 516 13 204 47 364 219 395 425 16 102 6 260 -21 340 -12 34 -36 86 -54 114 -35 54 -121 138 -168 162 -15 8 -28 16 -28 18 0 2 36 78 80 170 67 140 80 175 80 217 0 167 -192 255 -317 146 -28 -24 -61 -83 -141 -247 -57 -118 -109 -218 -116 -222 -6 -4 -102 -8 -213 -8 l-203 0 0 185 c0 232 -12 270 -102 316 -51 26 -106 32 -152 15z"></path><path id="pSVC14QAt" d="M7661 1659 c-201 -31 -400 -177 -490 -361 -72 -146 -72 -146 -69 -686 l3 -480 31 -39 c43 -55 107 -85 166 -80 64 5 135 50 162 102 20 38 21 58 26 500 6 518 3 498 86 581 67 68 101 76 315 72 l186 -3 48 -30 c57 -35 110 -100 125 -153 6 -23 10 -203 10 -473 l0 -435 26 -52 c59 -118 202 -146 301 -59 64 56 63 48 63 564 0 527 -2 541 -71 674 -87 166 -242 293 -424 344 -72 20 -393 29 -494 14z"></path><path id="puaBAwmIQ" d="M8946 1660 c-52 -16 -96 -54 -122 -106 l-25 -52 3 -473 c4 -531 2 -510 81 -664 60 -117 166 -219 289 -280 136 -67 202 -77 443 -73 189 4 205 6 285 33 198 68 354 223 428 427 l27 73 0 496 0 496 -28 40 c-80 115 -249 116 -324 1 l-28 -41 -5 -461 -5 -461 -28 -57 c-31 -64 -70 -101 -137 -132 -40 -19 -63 -21 -220 -21 -162 0 -178 2 -221 23 -61 30 -117 85 -143 141 -20 44 -21 63 -24 500 -3 425 -5 457 -23 492 -23 46 -70 83 -124 98 -46 12 -59 13 -99 1z"></path><path id="pc4fUHHz1" d="M10646 1655 c-49 -17 -93 -59 -117 -110 -17 -37 -19 -73 -19 -478 0 -495 4 -536 69 -672 68 -144 176 -250 324 -320 117 -56 191 -67 422 -63 189 4 205 6 284 33 200 68 354 222 429 427 l27 73 3 485 3 485 -24 45 c-68 130 -254 140 -334 18 l-28 -41 -5 -466 c-5 -456 -5 -467 -27 -507 -36 -67 -70 -101 -131 -131 -56 -27 -61 -28 -232 -28 -157 0 -180 2 -221 21 -56 26 -111 82 -141 143 -23 45 -23 52 -28 506 -4 413 -7 463 -22 492 -23 41 -72 78 -123 92 -50 14 -61 13 -109 -4z"></path><path id="pNYRNoTHD" d="M12764 1661 c-258 -42 -479 -242 -551 -501 -26 -95 -27 -544 0 -640 68 -251 271 -444 519 -494 60 -13 146 -16 385 -16 346 0 358 3 420 73 46 52 60 106 44 165 -15 59 -31 84 -77 119 l-37 28 -331 5 c-318 5 -333 6 -381 28 -65 30 -112 75 -141 137 -23 48 -24 59 -24 275 0 250 4 269 71 345 53 61 117 85 223 85 49 0 107 -5 128 -12 53 -16 130 -87 157 -143 36 -76 37 -75 -102 -75 -158 0 -213 -15 -261 -71 -44 -52 -62 -120 -46 -178 15 -55 83 -125 135 -140 52 -14 497 -15 548 0 52 14 112 71 133 124 14 37 16 69 12 192 -6 156 -23 233 -73 333 -81 161 -251 298 -425 345 -66 18 -255 27 -326 16z"></path><path id="p1Cc5oS4Rl" d="M596 1156 c-46 -17 -89 -57 -111 -101 -32 -68 -11 -180 41 -226 48 -42 87 -52 219 -57 181 -6 236 6 297 67 37 37 47 55 53 94 10 63 0 107 -34 154 -49 68 -82 78 -266 80 -118 2 -170 -1 -199 -11z"></path><path id="pIfaOMN3I" d="M9396 1155 c-162 -57 -176 -278 -23 -357 35 -18 64 -22 172 -26 166 -6 233 7 285 55 105 94 84 255 -42 317 -49 25 -60 26 -202 26 -102 -1 -164 -5 -190 -15z"></path></g></g></svg>
